<svg width="20" height="21" viewBox="0 0 20 21" fill="none" xmlns="http://www.w3.org/2000/svg">
<path fill-rule="evenodd" clip-rule="evenodd" d="M0 6.7901C0 3.47639 2.68629 0.7901 6 0.7901H14C17.3137 0.7901 20 3.47639 20 6.7901V14.7901C20 18.1038 17.3137 20.7901 14 20.7901H6C2.68629 20.7901 0 18.1038 0 14.7901V6.7901ZM10 13.7901C11.6569 13.7901 13 12.447 13 10.7901C13 9.13325 11.6569 7.7901 10 7.7901C8.34315 7.7901 7 9.13325 7 10.7901C7 12.447 8.34315 13.7901 10 13.7901ZM10 15.7901C12.7614 15.7901 15 13.5515 15 10.7901C15 8.02868 12.7614 5.7901 10 5.7901C7.23858 5.7901 5 8.02868 5 10.7901C5 13.5515 7.23858 15.7901 10 15.7901ZM16 5.7901C16.5523 5.7901 17 5.34238 17 4.7901C17 4.23782 16.5523 3.7901 16 3.7901C15.4477 3.7901 15 4.23782 15 4.7901C15 5.34238 15.4477 5.7901 16 5.7901Z" fill="white"/>
</svg>
