<svg width="23" height="21" viewBox="0 0 23 21" fill="none" xmlns="http://www.w3.org/2000/svg">
<path fill-rule="evenodd" clip-rule="evenodd" d="M20.2549 6.93333C20.0017 15.156 13.0049 23.5769 0.91679 19.6344C2.12074 19.5465 4.19489 18.8877 5.5966 17.0902C5.55687 17.0795 5.51697 17.0684 5.47691 17.0571C2.54117 16.2252 1.79038 13.4385 1.52858 12.3518L4.51622 12.9062C0.559987 11.3246 0.292609 9.10849 0.138027 7.82727C0.101556 7.52499 0.071364 7.27475 0.000488281 7.09716L4.54248 8.77304C0.000450382 7.09717 -0.313972 2.54692 1.45698 1.04207C3.8659 2.58401 7.59167 4.853 10.675 6.1216C10.6018 5.60067 10.6133 5.05876 10.7215 4.51361C11.2392 1.90558 13.7731 0.211018 16.3811 0.728704C18.3968 1.12881 19.8668 2.73325 20.1916 4.64546L22.5971 4.24455C22.5971 4.63605 22.0997 5.04412 21.484 5.39294L22.5971 5.20743C22.5971 5.84975 21.2581 6.5367 20.2549 6.93333Z" fill="white"/>
</svg>
