<svg width="20" height="19" viewBox="0 0 20 19" fill="none" xmlns="http://www.w3.org/2000/svg">
<path d="M2.23045 4.00101C3.56411 4.00101 4.46089 3.12722 4.46089 1.93152C4.46089 0.827795 3.56411 0 2.23045 0C0.896777 0 0 0.873784 0 2.0005C0 3.12722 0.896777 4.00101 2.23045 4.00101ZM0.436891 18.0965H4.024V5.72558H0.436891V18.0965Z" fill="white"/>
<path d="M14.8723 5.54162C13.1937 5.54162 11.7451 6.11648 10.7793 7.17422V5.72558H7.35314V18.0965H10.9403V11.98C10.9403 9.70359 12.1819 8.64585 13.9065 8.64585C15.4931 8.64585 16.4129 9.56562 16.4129 11.5661V18.0965H20V11.0143C20 7.2432 17.7925 5.54162 14.8723 5.54162Z" fill="white"/>
</svg>
