<svg width="28" height="18" viewBox="0 0 28 18" fill="none" xmlns="http://www.w3.org/2000/svg">
<path d="M11.1146 8.54237C12.3471 7.77966 13.1256 6.40678 13.1256 4.62712C13.1256 1.85593 11.1794 0 7.39529 0H0V17.7966H7.82777C11.8065 17.7966 13.8824 16.0169 13.8824 12.9407C13.8824 10.7034 12.8012 9.17797 11.1146 8.54237ZM6.96282 3.1017C8.67109 3.1017 9.60091 3.78814 9.60091 5.18644C9.60091 6.58475 8.67109 7.29661 6.96282 7.29661H3.48141V3.1017H6.96282ZM7.56828 14.6949H3.48141V10.2966H7.56828C9.38467 10.2966 10.3577 11.0085 10.3577 12.5085C10.3577 14.0339 9.38467 14.6949 7.56828 14.6949Z" fill="white"/>
<path d="M27.6923 11.0085C27.6923 6.61017 25.0542 3.91526 21.6377 3.91526C18.0914 3.91526 15.4317 6.86441 15.4317 10.9576C15.4317 15.0254 18.0482 18 22.0702 18C24.1677 18 25.7894 17.2373 26.8706 15.7881L25.0758 13.5C24.2758 14.3898 23.3892 14.822 22.1567 14.822C20.3835 14.822 19.151 13.7797 18.8266 12.0763H27.6274C27.6491 11.7458 27.6923 11.3136 27.6923 11.0085ZM21.6593 6.91525C23.173 6.91525 24.2758 8.0339 24.5136 9.76271H18.7834C19.0212 8.00848 20.124 6.91525 21.6593 6.91525Z" fill="white"/>
</svg>
